inDegrees=no
num_controls=7
num_derivatives=13
num_iterations=193
num_multipliers=7
num_parameters=0
num_slacks=7
num_states=26
objective=0.549070
objective_accelerations=0.036246
objective_balance=0.002721
objective_effort=0.035459
objective_height=0.465104
objective_ligament=0.009540
solver_duration=1980.595949
status=Solve_Succeeded
success=true
DataType=double
version=3
OpenSimVersion=4.5
endheader
time	/jointset/ground_pelvis/pelvis_tilt/value	/jointset/ground_pelvis/pelvis_tx/value	/jointset/ground_pelvis/pelvis_ty/value	/jointset/hip_r/hip_flexion_r/value	/jointset/hip_r/hip_adduction_r/value	/jointset/hip_r/hip_rotation_r/value	/jointset/back/lumbar_extension/value	/jointset/patellofemoral_r/patellar_flexion_r/value	/jointset/knee_r/knee_flexion_r/value	/jointset/knee_r/knee_adduction_r/value	/jointset/knee_r/knee_rotation_r/value	/jointset/ankle_r/ankle_angle_r/value	/jointset/subtalar_r/subtalar_angle_r/value	/jointset/ground_pelvis/pelvis_tilt/speed	/jointset/ground_pelvis/pelvis_tx/speed	/jointset/ground_pelvis/pelvis_ty/speed	/jointset/hip_r/hip_flexion_r/speed	/jointset/hip_r/hip_adduction_r/speed	/jointset/hip_r/hip_rotation_r/speed	/jointset/back/lumbar_extension/speed	/jointset/patellofemoral_r/patellar_flexion_r/speed	/jointset/knee_r/knee_flexion_r/speed	/jointset/knee_r/knee_adduction_r/speed	/jointset/knee_r/knee_rotation_r/speed	/jointset/ankle_r/ankle_angle_r/speed	/jointset/subtalar_r/subtalar_angle_r/speed	/forceset/tau_hip_flexion_r	/forceset/tau_hip_adduction_r	/forceset/tau_hip_rotation_r	/forceset/tau_knee_flexion_r	/forceset/tau_ankle_angle_r	/forceset/tau_subtalar_angle_r	/forceset/tau_lumbar_extension	lambda_cid13_p0	lambda_cid14_p0	lambda_cid14_p1	lambda_cid14_p2	lambda_cid14_p3	lambda_cid14_p4	lambda_cid14_p5	/jointset/ground_pelvis/pelvis_tilt/accel	/jointset/ground_pelvis/pelvis_tx/accel	/jointset/ground_pelvis/pelvis_ty/accel	/jointset/hip_r/hip_flexion_r/accel	/jointset/hip_r/hip_adduction_r/accel	/jointset/hip_r/hip_rotation_r/accel	/jointset/back/lumbar_extension/accel	/jointset/patellofemoral_r/patellar_flexion_r/accel	/jointset/knee_r/knee_flexion_r/accel	/jointset/knee_r/knee_adduction_r/accel	/jointset/knee_r/knee_rotation_r/accel	/jointset/ankle_r/ankle_angle_r/accel	/jointset/subtalar_r/subtalar_angle_r/accel	gamma_cid13_p0	gamma_cid14_p0	gamma_cid14_p1	gamma_cid14_p2	gamma_cid14_p3	gamma_cid14_p4	gamma_cid14_p5
0.5	-0.09339105639053154	0.05198115513658434	0.8650004536963666	0.6846355369046928	-0.2287711954803695	-0.1361328604190462	-0.3175656754269044	0.6821058134189477	0.6821058134189466	0.03859071334326607	0.1744980898623023	0.2620718414267693	0.05805047220301324	-0.2485691525139717	-0.09051815895436413	-0.3206025402663735	1.380948414992777	-0.008041756742264976	0.2485249781350496	-0.602704377793135	1.648871197069044	1.648871197069044	-0.2822435702710209	-4.786134411215688e-05	0.6052800085981053	0.163218971200398	-0.07250463860963501	-0.02192921499217971	0.008083867644857674	-0.3405107196538359	0.06460097786742421	-0.008538040647752848	0.1336258711507862	-32.34359374873913	-21.42741742052667	-3.376317062162316	-3.666138825901514	3.310408923804678	-671.1557355779389	62.23923098021552	0.06822396791096745	0.2809798430832693	-0.3396388599896197	-0.8636127977500416	-0.07277844439453114	-0.5292675587255276	1.304606700596472	-1.117788279103879	-1.117788279103879	0.4265228242344202	0.001752961352192274	-0.4581498675365001	-0.08923914367082267	-1.013080430403562e-07	-1.537738303453397e-07	4.357802249632375e-07	-1.233069592244763e-06	4.65281022971162e-08	-2.022704547746289e-07	7.972198050167352e-07
0.51	-0.09587292868324369	0.05109014145206969	0.8617781521137231	0.6983996832364123	-0.2288560123261082	-0.1336726704496703	-0.3235266768911397	0.6985361784487699	0.698536178448768	0.03579216821117289	0.1744974312053401	0.2681006196933804	0.05967679967597951	-0.2477674554897539	-0.08767441734010396	-0.3237849317058166	1.371685272022995	-0.008927687434369502	0.2435454598145301	-0.5894129519082132	1.636968187927732	1.636968187927731	-0.27740801318561	-0.0001003795386502672	0.6003905771482894	0.1620079070863249	-0.07776290125732695	-0.02009543444266863	0.00878016994439205	-0.3432323118391616	0.06028228666607316	-0.008036081640976312	0.13847319136742	-31.41205004822467	-22.95622852444703	-3.541037223583179	-3.508477447985047	3.932116854466345	-674.2842326893797	61.96474271978207	0.09180762994936666	0.287605414088705	-0.2966527732670067	-0.9870186744843191	-0.09758037908867549	-0.4776008160548025	1.35385500430039	-1.261581090567031	-1.261581090567025	0.5206810540125207	-0.01144340318154758	-0.5171063872568178	-0.14291223922273	-8.091382092422155e-08	-8.827060481331196e-08	5.962796126219917e-07	-7.381988468214801e-07	-1.090593064233178e-08	-1.317813455288718e-07	6.752054850645576e-07
0.52	-0.09834565099365924	0.0502278720023959	0.8585262039192161	0.7120653274128558	-0.2289499044782621	-0.1312613370329676	-0.3293522752021538	0.7148405086153944	0.7148405086153919	0.03304370043059743	0.1744957095277676	0.2740779503247829	0.06128984206901564	-0.2467391560546489	-0.08476931198619049	-0.3265318626390505	1.36124798393753	-0.009856818025279119	0.238753667600422	-0.5756237471488646	1.623664224429535	1.623664224429535	-0.2722280999674742	-0.0002604654661784874	0.5949904815563665	0.1605619552143648	-0.08302116390505695	-0.01826165389315754	0.009476472243926264	-0.3459539040244872	0.05596359546472211	-0.007534122634199753	0.1433205115840539	-30.46956580867385	-24.49037625302234	-3.704594014682154	-3.353398338448338	4.542190919465613	-677.5005165347718	61.75319781102354	0.1135444500883969	0.2932525910139372	-0.2525467587477838	-1.098441820886614	-0.08141842415500954	-0.4917223374435633	1.404162475481826	-1.39797915048076	-1.39797915048076	0.4953940507795223	-0.01976058524590125	-0.5602826959578638	-0.1362166952482336	-4.956255162815224e-08	3.838236827210043e-08	1.003093778492941e-06	2.021111042222373e-07	-1.339832121347786e-07	7.773841662976929e-09	5.124500721021914e-07
0.53	-0.1008071576536367	0.04939494809486912	0.8552489946279249	0.7256210960499889	-0.2290525820002584	-0.1289003277338339	-0.3350375075755412	0.7310049463223064	0.7310049463223053	0.03034538868482129	0.174493740560313	0.2799990272782368	0.06288834914156997	-0.2455316475621831	-0.08180453234159948	-0.3288328604340374	1.34971368895155	-0.01068762629163813	0.2334847944755942	-0.5613532059017666	1.608991219026872	1.608991219026872	-0.2673727466369555	-0.0001519657592878402	0.5891445985243903	0.1590972944595515	-0.08787202133351581	-0.01712744228267851	0.01016516810840646	-0.3493337365033568	0.05245873223427356	-0.006851649875997528	0.1478676865084993	-29.52144668061658	-25.75860888886679	-3.722061831073855	-3.245747916062141	4.953780176698543	-680.8057927677689	61.92604077200495	0.1289406403898243	0.2996915018434647	-0.207289796990839	-1.209720229293841	-0.08503642851762858	-0.5389751909971436	1.448928193348284	-1.536769305010595	-1.536769305010594	0.4900366168351796	0.02350641356123852	-0.6088214759560715	-0.1576422826118068	-2.454653047894242e-08	1.294830979618007e-07	1.268956286056898e-06	8.728444207408317e-07	-2.199883851653671e-07	1.073109447785061e-07	4.013963600808073e-07
